<?xml version="1.0" standalone="no"?>
<!DOCTYPE svg PUBLIC "-//W3C//DTD SVG 20010904//EN"
 "http://www.w3.org/TR/2001/REC-SVG-20010904/DTD/svg10.dtd">
<svg version="1.0" xmlns="http://www.w3.org/2000/svg"
 width="2394.000000pt" height="2394.000000pt" viewBox="0 0 2394.000000 2394.000000"
 preserveAspectRatio="xMidYMid meet">
<metadata>
Created by potrace 1.14, written by Peter Selinger 2001-2017
</metadata>
<g transform="translate(0.000000,2394.000000) scale(0.100000,-0.100000)"
fill="#000000" stroke="none">
<path d="M11490 23809 c0 -11 -126 -19 -309 -20 -95 -1 -168 -5 -161 -9 17
-11 -52 -20 -152 -20 -48 0 -90 -4 -93 -10 -3 -5 -12 -10 -18 -10 -7 0 -6 4 3
10 11 7 7 10 -18 10 -20 0 -31 -4 -27 -10 8 -12 16 -10 -85 -19 -47 -4 -94
-11 -105 -15 -16 -6 -17 -6 -5 3 12 9 10 11 -13 11 -16 0 -35 -7 -43 -15 -12
-11 -39 -15 -105 -15 -67 0 -94 -4 -105 -15 -15 -15 -36 -17 -139 -16 -38 0
-44 -2 -25 -8 20 -6 14 -9 -35 -15 -33 -4 -80 -7 -105 -8 -25 -1 -51 -7 -58
-15 -13 -12 -54 -18 -114 -14 -16 0 -28 -4 -28 -10 0 -5 -4 -8 -9 -5 -5 4 -11
1 -13 -4 -2 -6 -30 -11 -62 -11 -37 -1 -65 -6 -73 -15 -13 -12 -74 -20 -124
-15 -9 1 -19 -5 -22 -14 -4 -8 -17 -15 -29 -15 -13 0 -41 -7 -63 -15 -22 -8
-65 -15 -95 -15 -37 -1 -49 -4 -35 -9 15 -6 11 -9 -20 -14 -22 -4 -58 -7 -80
-8 -29 0 -35 -2 -20 -8 15 -6 11 -9 -20 -14 -22 -4 -57 -7 -78 -7 -21 0 -36
-4 -32 -9 8 -13 -33 -24 -82 -22 -32 1 -43 -3 -43 -14 0 -11 -11 -15 -41 -15
-27 0 -46 -6 -53 -16 -9 -11 -28 -16 -64 -16 -39 1 -52 -3 -52 -14 0 -14 -15
-18 -57 -15 -12 1 -25 -5 -30 -13 -5 -9 -25 -16 -48 -18 -22 -1 -45 -8 -51
-16 -6 -8 -27 -15 -47 -16 -20 0 -39 -7 -42 -13 -2 -7 -17 -13 -32 -13 -16 0
-38 -7 -50 -15 -12 -9 -38 -16 -57 -17 -19 -1 -33 -5 -31 -9 6 -9 -20 -19 -52
-19 -14 0 -31 -7 -37 -15 -6 -8 -26 -16 -43 -17 -18 -1 -33 -7 -33 -13 0 -5
-5 -3 -10 5 -8 13 -10 12 -10 -2 0 -13 -8 -18 -31 -18 -17 0 -28 -4 -24 -10 6
-10 -27 -21 -70 -24 -14 0 -27 -7 -30 -13 -2 -7 -18 -13 -35 -13 -17 0 -30 -5
-30 -12 0 -9 -4 -8 -10 2 -8 13 -10 12 -10 -2 0 -11 -8 -18 -18 -18 -10 0 -27
-7 -39 -15 -11 -8 -35 -16 -53 -17 -17 -1 -34 -7 -37 -12 -4 -5 0 -6 8 -1 10
6 11 5 4 -3 -6 -6 -25 -12 -42 -14 -18 -1 -35 -8 -37 -15 -3 -7 -19 -13 -35
-13 -16 0 -36 -7 -45 -15 -8 -8 -19 -15 -25 -15 -6 0 -11 -5 -11 -11 0 -8 -5
-8 -15 1 -12 10 -15 10 -15 -4 0 -11 -9 -16 -29 -16 -16 0 -31 -6 -35 -15 -3
-8 -15 -15 -26 -15 -12 0 -28 -7 -36 -15 -9 -8 -31 -15 -50 -15 -24 0 -34 -5
-34 -15 0 -15 -10 -19 -42 -16 -10 1 -18 -4 -18 -13 0 -11 -9 -16 -30 -16 -20
0 -30 -5 -30 -15 0 -13 -18 -18 -47 -14 -3 0 -10 -6 -15 -15 -5 -9 -18 -16
-28 -16 -11 0 -29 -9 -40 -20 -12 -12 -25 -18 -31 -14 -6 3 -17 -2 -25 -12 -9
-11 -12 -12 -8 -4 5 8 -9 2 -31 -14 -21 -16 -35 -24 -31 -17 11 16 -33 -7 -52
-29 -12 -13 -13 -13 -6 0 5 8 -9 2 -29 -13 -21 -16 -46 -29 -57 -30 -11 -1
-22 -7 -24 -14 -3 -7 -16 -13 -30 -13 -13 0 -26 -7 -30 -15 -3 -8 -17 -15 -31
-15 -16 0 -25 -6 -25 -15 0 -10 -10 -15 -30 -15 -20 0 -30 -5 -30 -15 0 -14
-17 -20 -47 -16 -7 1 -13 -5 -13 -14 0 -10 -10 -15 -31 -15 -24 0 -30 -4 -25
-15 3 -8 0 -15 -6 -15 -6 0 -19 -7 -29 -16 -9 -8 -26 -16 -38 -17 -11 -1 -23
-7 -25 -14 -3 -7 -17 -13 -31 -13 -16 0 -24 -4 -20 -11 6 -9 -15 -20 -37 -20
-4 0 -22 -13 -40 -29 -18 -17 -43 -30 -55 -30 -14 0 -23 -6 -23 -15 0 -10 -10
-15 -29 -15 -21 0 -30 -6 -34 -21 -3 -12 -10 -18 -15 -15 -6 3 -12 -1 -16 -9
-3 -8 -17 -15 -31 -15 -16 0 -25 -6 -25 -15 0 -8 -7 -16 -15 -16 -35 -3 -40
-5 -38 -17 2 -7 -4 -12 -12 -12 -8 0 -24 -9 -35 -20 -11 -11 -26 -17 -35 -14
-10 4 -15 0 -15 -10 0 -9 -7 -16 -16 -16 -8 0 -13 -4 -10 -9 7 -10 -17 -21
-45 -21 -10 0 -19 -7 -19 -15 0 -8 -6 -15 -14 -15 -8 0 -16 -7 -20 -15 -3 -8
-15 -15 -26 -15 -11 0 -23 -7 -26 -15 -4 -8 -10 -15 -15 -15 -5 0 -18 -9 -29
-20 -12 -12 -25 -18 -30 -15 -6 4 -13 -1 -16 -9 -3 -9 -12 -16 -19 -16 -7 0
-15 -7 -19 -15 -3 -8 -17 -15 -31 -15 -15 0 -24 -4 -20 -10 3 -6 -2 -13 -12
-17 -10 -4 -24 -14 -30 -24 -8 -10 -21 -15 -32 -12 -13 3 -20 -2 -24 -17 -3
-12 -10 -19 -16 -15 -6 3 -11 -1 -11 -9 0 -11 -10 -16 -32 -16 -22 0 -29 -3
-20 -9 11 -6 10 -10 -5 -16 -10 -5 -21 -7 -25 -7 -5 1 -8 -5 -8 -13 0 -8 -6
-15 -14 -15 -8 0 -16 -7 -20 -15 -3 -8 -17 -15 -31 -15 -19 0 -25 -5 -25 -21
0 -15 -5 -19 -15 -15 -9 3 -15 0 -15 -9 0 -8 -7 -15 -15 -15 -8 0 -15 -7 -15
-15 0 -10 -10 -15 -30 -15 -20 0 -30 -5 -30 -15 0 -8 -7 -15 -16 -15 -8 0 -13
-4 -10 -9 3 -4 -16 -23 -41 -41 -26 -19 -43 -27 -39 -19 4 8 1 6 -7 -3 -8 -10
-19 -18 -26 -18 -6 0 -11 -7 -11 -15 0 -8 -7 -15 -15 -15 -8 0 -15 -7 -15 -15
0 -8 -6 -15 -14 -15 -8 0 -16 -7 -20 -15 -3 -8 -17 -15 -31 -15 -16 0 -25 -6
-25 -15 0 -8 -7 -15 -15 -15 -8 0 -15 -7 -15 -15 0 -8 -7 -15 -15 -15 -8 0
-15 -5 -15 -11 0 -15 -42 -48 -61 -49 -9 0 -19 -7 -23 -15 -3 -8 -12 -15 -21
-15 -8 0 -15 -7 -15 -15 0 -9 -7 -18 -15 -21 -8 -4 -12 -10 -9 -15 3 -5 -4 -9
-15 -9 -12 0 -21 -7 -21 -15 0 -8 -7 -15 -15 -15 -8 0 -15 -7 -15 -15 0 -8 -6
-15 -14 -15 -8 0 -16 -7 -20 -15 -3 -8 -17 -15 -31 -15 -14 0 -25 -4 -25 -10
0 -13 -37 -50 -50 -50 -5 0 -10 -7 -10 -15 0 -8 -7 -15 -15 -15 -8 0 -15 -7
-15 -15 0 -8 -7 -15 -15 -15 -8 0 -15 -7 -15 -15 0 -8 -7 -15 -15 -15 -8 0
-15 -7 -15 -15 0 -8 -7 -15 -15 -15 -8 0 -15 -7 -15 -15 0 -8 -4 -15 -8 -15
-4 0 -26 -18 -49 -39 -22 -22 -44 -37 -47 -34 -3 4 -6 -1 -6 -9 0 -11 -6 -14
-21 -11 -16 5 -20 2 -17 -13 2 -11 -2 -18 -10 -16 -6 1 -11 -4 -10 -10 2 -7
-7 -14 -19 -16 -13 -2 -23 -10 -23 -18 0 -8 -7 -14 -15 -14 -8 0 -15 -7 -15
-15 0 -8 -7 -15 -15 -15 -8 0 -15 -7 -15 -15 0 -8 -7 -15 -15 -15 -8 0 -15 -7
-15 -15 0 -8 -7 -15 -15 -15 -8 0 -15 -9 -15 -19 0 -11 -5 -23 -12 -27 -7 -5
-8 -3 -3 6 5 9 4 11 -3 6 -7 -4 -12 -13 -12 -21 0 -8 -5 -17 -12 -21 -7 -5 -9
-2 -4 7 4 8 1 6 -7 -3 -8 -10 -19 -18 -26 -18 -6 0 -11 -7 -11 -15 0 -8 -7
-15 -15 -15 -8 0 -15 -7 -15 -15 0 -8 -7 -15 -15 -15 -8 0 -15 -7 -15 -15 0
-8 -7 -15 -15 -15 -8 0 -15 -7 -15 -15 0 -8 -7 -15 -15 -15 -8 0 -15 -9 -15
-19 0 -11 -5 -23 -12 -27 -7 -4 -8 -3 -4 4 4 7 2 12 -3 12 -6 0 -11 -7 -11
-15 0 -8 -7 -15 -15 -15 -8 0 -15 -9 -15 -20 0 -12 -26 -47 -60 -81 -33 -33
-60 -64 -60 -69 0 -6 -8 -10 -17 -10 -9 0 -13 -3 -10 -7 9 -9 -13 -34 -24 -27
-5 3 -9 -2 -9 -10 0 -9 -7 -16 -15 -16 -8 0 -15 -7 -15 -15 0 -8 -7 -15 -15
-15 -8 0 -15 -7 -15 -15 0 -8 -7 -15 -15 -15 -8 0 -15 -7 -15 -15 0 -8 -7 -15
-15 -15 -9 0 -15 -9 -15 -23 0 -13 -13 -33 -30 -47 -16 -14 -29 -31 -30 -37 0
-7 -7 -13 -15 -13 -8 0 -15 -7 -15 -15 0 -8 -7 -15 -15 -15 -8 0 -15 -8 -15
-18 0 -23 -19 -42 -42 -42 -10 0 -17 -3 -17 -7 5 -28 -3 -53 -16 -53 -8 0 -15
-4 -15 -10 0 -13 -37 -50 -50 -50 -5 0 -10 -7 -10 -15 0 -8 -7 -15 -15 -15 -9
0 -15 -9 -15 -21 0 -12 -13 -35 -30 -51 -16 -15 -30 -35 -30 -43 0 -9 -6 -12
-15 -9 -10 4 -15 0 -15 -14 0 -12 -5 -24 -12 -28 -7 -4 -8 -3 -4 4 4 7 2 12
-3 12 -6 0 -11 -11 -11 -25 0 -14 -7 -28 -15 -31 -8 -4 -15 -12 -15 -20 0 -8
-6 -14 -14 -14 -7 0 -17 -8 -20 -17 -13 -35 -37 -73 -47 -73 -5 0 -9 -7 -9
-15 0 -8 -7 -15 -15 -15 -8 0 -15 -5 -15 -11 0 -7 -11 -22 -26 -35 -14 -14
-19 -24 -12 -24 9 -1 7 -5 -4 -14 -10 -7 -18 -18 -18 -25 0 -6 -6 -11 -12 -11
-7 0 -22 -20 -33 -45 -11 -25 -25 -45 -32 -45 -7 0 -13 -7 -13 -15 0 -8 -7
-15 -15 -15 -8 0 -15 -9 -15 -19 0 -11 -5 -23 -12 -27 -7 -4 -8 -3 -4 4 4 7 2
12 -3 12 -6 0 -11 -13 -11 -30 0 -20 -5 -30 -15 -30 -9 0 -12 -6 -9 -15 4 -10
0 -15 -15 -15 -16 0 -21 -6 -21 -25 0 -14 -6 -28 -14 -31 -8 -3 -17 -17 -21
-32 -5 -20 -8 -23 -16 -11 -6 10 -9 7 -9 -14 0 -15 -6 -30 -14 -33 -8 -3 -16
-15 -19 -26 -3 -11 -10 -17 -16 -13 -7 4 -11 -4 -11 -20 0 -14 -7 -28 -15 -31
-8 -4 -15 -12 -15 -20 0 -8 -7 -14 -15 -14 -9 0 -15 -9 -15 -25 0 -25 -31 -65
-50 -65 -6 0 -10 -13 -10 -30 0 -20 -5 -30 -15 -30 -8 0 -15 -6 -15 -14 0 -8
-7 -16 -15 -20 -8 -3 -15 -16 -15 -30 0 -13 -7 -27 -16 -30 -8 -3 -13 -10 -9
-16 3 -5 -3 -18 -15 -30 -11 -11 -20 -24 -20 -30 0 -5 -7 -10 -15 -10 -10 0
-15 -10 -15 -30 0 -18 -5 -30 -13 -30 -7 0 -14 -10 -14 -22 -1 -13 -9 -28 -18
-34 -8 -6 -15 -20 -15 -32 0 -11 -7 -22 -15 -26 -8 -3 -15 -12 -15 -21 0 -8
-7 -15 -15 -15 -10 0 -15 -10 -15 -30 0 -20 -5 -30 -15 -30 -9 0 -15 -9 -15
-25 0 -14 -7 -28 -15 -31 -8 -4 -15 -17 -15 -30 0 -14 -7 -27 -15 -30 -8 -4
-15 -12 -15 -20 0 -8 -7 -14 -15 -14 -8 0 -15 -5 -15 -11 0 -5 4 -8 9 -5 5 4
4 -5 -2 -19 -7 -14 -18 -25 -25 -25 -6 0 -11 -3 -11 -7 5 -28 -3 -53 -16 -53
-10 0 -15 -10 -15 -30 0 -18 -5 -30 -13 -30 -7 0 -14 -10 -14 -22 -1 -13 -10
-28 -19 -35 -9 -6 -13 -16 -10 -22 4 -6 -2 -19 -14 -31 -11 -11 -20 -28 -20
-39 0 -10 -7 -24 -15 -31 -8 -7 -15 -21 -15 -32 0 -10 -7 -21 -15 -24 -8 -4
-15 -17 -15 -30 0 -14 -7 -27 -15 -30 -8 -4 -13 -9 -11 -13 2 -3 -4 -24 -14
-46 -11 -22 -19 -44 -20 -48 0 -5 -7 -15 -15 -23 -8 -9 -15 -24 -15 -35 0 -10
-6 -19 -14 -19 -9 0 -16 -12 -18 -32 -2 -20 -8 -32 -16 -30 -7 1 -12 -9 -12
-28 0 -20 -5 -30 -15 -30 -8 0 -15 -5 -15 -11 0 -5 6 -7 13 -3 10 6 10 4 0 -7
-7 -7 -13 -23 -13 -36 0 -13 -7 -26 -15 -29 -8 -4 -15 -17 -15 -30 0 -12 -8
-27 -17 -33 -10 -5 -17 -12 -15 -15 7 -18 0 -46 -13 -46 -10 0 -15 -10 -15
-34 0 -18 -7 -39 -15 -46 -9 -7 -15 -20 -13 -29 1 -9 -5 -27 -15 -41 -9 -13
-17 -32 -17 -42 0 -10 -7 -18 -17 -18 -15 0 -16 -2 -3 -10 10 -6 11 -10 3 -10
-8 0 -13 -13 -13 -29 0 -16 -7 -34 -15 -41 -8 -7 -15 -24 -15 -39 0 -15 -6
-33 -12 -39 -7 -7 -13 -18 -14 -25 0 -7 -2 -20 -2 -29 -1 -10 -9 -18 -18 -18
-12 0 -15 -6 -11 -21 7 -25 -12 -81 -24 -73 -5 3 -9 -9 -9 -25 0 -23 -5 -31
-17 -32 -12 0 -13 -2 -5 -6 8 -3 10 -9 3 -16 -5 -7 -11 -25 -13 -42 -2 -17 -8
-29 -15 -27 -9 1 -13 -11 -13 -38 0 -25 -5 -43 -13 -46 -8 -3 -14 -21 -15 -40
-1 -19 -8 -45 -17 -57 -8 -12 -15 -32 -15 -45 0 -12 -7 -33 -15 -46 -9 -13
-15 -28 -14 -32 1 -5 -1 -27 -6 -49 -7 -33 -9 -36 -16 -20 -5 14 -8 6 -8 -26
-1 -32 -6 -49 -16 -53 -10 -3 -15 -19 -15 -46 0 -29 -4 -40 -15 -40 -12 0 -15
-13 -15 -55 0 -41 -4 -57 -16 -62 -8 -3 -14 -15 -13 -27 3 -44 -1 -66 -14 -66
-8 0 -14 -15 -15 -37 -3 -62 -13 -113 -23 -119 -5 -3 -9 -18 -9 -35 0 -16 -4
-29 -9 -29 -4 0 -7 -12 -4 -27 3 -25 2 -25 -7 -8 -8 18 -9 16 -8 -10 2 -50
-13 -120 -23 -104 -6 9 -9 -4 -9 -38 0 -29 -6 -57 -13 -65 -8 -7 -14 -27 -14
-43 0 -17 -3 -48 -7 -69 -6 -29 -10 -36 -17 -25 -6 9 -9 -9 -9 -53 0 -46 -5
-71 -15 -82 -10 -10 -15 -34 -15 -73 0 -37 -6 -67 -15 -79 -8 -10 -14 -23 -15
-29 0 -5 5 -3 10 5 5 8 10 10 10 4 0 -6 -3 -14 -7 -18 -9 -9 -10 -14 -12 -60
0 -19 -7 -41 -14 -48 -8 -8 -14 -39 -15 -73 -2 -73 -11 -115 -23 -115 -5 0 -9
-36 -9 -79 0 -59 -4 -84 -15 -95 -9 -9 -15 -21 -14 -28 7 -53 -3 -168 -15
-181 -11 -10 -14 -41 -14 -116 0 -70 -5 -109 -14 -124 -10 -15 -15 -58 -16
-132 -2 -129 -10 -205 -22 -205 -5 0 -9 -90 -10 -201 0 -111 -2 -205 -5 -210
-3 -4 -6 -34 -6 -65 -1 -34 -4 -51 -9 -44 -12 19 -4 -862 8 -940 6 -36 12
-130 13 -210 1 -85 7 -151 13 -159 8 -11 8 -13 -1 -7 -10 5 -13 -5 -13 -41 0
-30 3 -43 9 -34 13 20 22 -57 22 -192 0 -64 4 -117 9 -117 13 0 19 -40 21
-140 1 -58 7 -105 15 -122 9 -17 14 -60 14 -114 0 -63 4 -92 15 -104 10 -11
15 -41 16 -97 1 -59 5 -83 15 -87 10 -4 14 -27 14 -91 0 -69 3 -85 15 -85 11
0 15 -14 16 -57 1 -32 0 -66 -1 -77 -1 -10 3 -15 8 -12 15 9 22 -19 22 -86 0
-43 5 -64 15 -72 10 -7 16 -30 17 -61 1 -27 8 -56 15 -63 12 -12 17 -61 14
-122 -1 -18 1 -21 7 -12 12 18 22 -17 22 -81 0 -27 4 -46 9 -43 13 8 21 -19
21 -71 0 -31 5 -50 16 -58 12 -8 17 -27 17 -63 1 -36 5 -52 14 -52 8 0 13 -14
13 -39 0 -22 5 -43 11 -46 6 -4 8 -14 5 -22 -3 -8 -1 -11 4 -8 6 4 10 -14 10
-45 0 -28 4 -49 9 -46 12 8 21 -18 21 -56 0 -16 7 -36 15 -44 9 -10 15 -34 15
-65 0 -37 4 -49 15 -49 15 0 19 -20 15 -67 -1 -15 4 -23 14 -23 10 0 16 -9 16
-25 0 -38 0 -39 16 -56 8 -8 15 -34 16 -57 1 -28 6 -42 15 -42 9 0 13 -14 13
-45 0 -33 4 -45 15 -45 14 0 20 -26 18 -77 -1 -7 5 -13 13 -13 8 0 14 -10 14
-24 0 -14 5 -28 10 -31 6 -4 7 -11 4 -17 -4 -6 -2 -13 4 -17 5 -3 12 -17 13
-31 2 -14 10 -30 18 -36 7 -5 13 -27 13 -47 0 -25 5 -37 14 -37 8 0 14 -10 14
-26 0 -14 7 -32 15 -40 8 -9 15 -30 15 -49 0 -20 6 -35 15 -39 9 -3 15 -18 15
-37 0 -18 7 -37 16 -44 9 -6 16 -24 16 -38 0 -16 6 -27 14 -27 12 0 20 -27 15
-53 -1 -5 3 -6 8 -3 12 8 21 -18 21 -60 0 -24 5 -34 15 -34 13 0 21 -25 16
-52 0 -5 6 -8 14 -8 9 0 15 -9 15 -22 0 -12 7 -29 16 -39 9 -10 16 -34 16 -53
0 -24 5 -36 14 -36 9 0 14 -11 14 -31 0 -24 4 -30 15 -25 14 5 20 -15 16 -52
-1 -6 5 -12 14 -12 13 0 21 -24 16 -53 0 -4 6 -7 14 -7 14 0 20 -17 16 -46 -1
-7 5 -14 14 -18 8 -3 15 -14 15 -24 0 -11 7 -25 15 -32 8 -7 15 -23 15 -35 0
-13 7 -25 15 -29 8 -3 15 -16 15 -30 0 -13 7 -26 15 -30 8 -3 15 -14 15 -24 0
-11 7 -25 15 -32 8 -7 15 -23 15 -35 0 -13 7 -25 15 -29 8 -3 15 -17 15 -31 0
-16 6 -25 15 -25 14 0 20 -17 16 -48 -1 -6 5 -12 14 -12 14 0 20 -17 16 -47
-1 -7 5 -13 14 -13 9 0 15 -9 15 -25 0 -14 7 -28 15 -31 8 -4 15 -16 15 -29 0
-13 7 -25 15 -29 8 -3 15 -12 15 -21 0 -8 7 -15 15 -15 15 0 19 -10 16 -42 -1
-10 4 -18 13 -18 16 0 31 -34 21 -50 -3 -5 1 -10 9 -10 15 0 21 -17 16 -49 -1
-9 4 -12 14 -8 10 4 16 1 16 -7 0 -7 7 -19 15 -26 8 -7 15 -23 15 -37 0 -13 4
-22 9 -18 5 3 16 -8 24 -24 11 -22 12 -31 3 -35 -6 -2 -3 -5 7 -5 9 -1 17 -7
17 -15 0 -8 7 -16 15 -20 8 -3 15 -15 15 -26 0 -11 7 -23 15 -26 9 -4 15 -19
15 -35 0 -16 4 -29 10 -29 11 0 50 -36 50 -46 0 -3 14 -26 30 -51 17 -24 30
-53 30 -64 0 -10 7 -19 15 -19 8 0 15 -4 15 -10 0 -5 9 -19 20 -30 11 -11 17
-26 14 -35 -4 -10 0 -15 10 -15 9 0 16 -6 16 -14 0 -8 7 -16 15 -20 8 -3 15
-17 15 -31 0 -16 4 -24 11 -20 6 4 13 -2 16 -14 3 -12 9 -21 14 -21 5 0 14
-10 19 -22 15 -34 33 -62 48 -71 6 -4 12 -19 12 -32 0 -16 6 -25 15 -25 8 0
15 -7 15 -15 0 -8 7 -15 15 -15 10 0 15 -10 15 -30 0 -20 5 -30 15 -30 8 0 15
-7 15 -15 0 -8 7 -15 15 -15 8 0 15 -4 15 -9 0 -6 11 -22 25 -37 13 -14 22
-30 19 -35 -3 -5 0 -9 5 -9 6 0 11 -7 11 -15 0 -8 6 -15 14 -15 17 0 47 -44
49 -71 1 -11 7 -17 14 -15 8 3 13 -2 13 -14 0 -11 7 -20 15 -20 8 0 15 -6 15
-14 0 -8 7 -16 15 -20 8 -3 15 -17 15 -31 0 -16 6 -25 15 -25 8 0 15 -7 15
-15 0 -8 7 -15 15 -15 8 0 15 -7 15 -15 0 -8 7 -15 15 -15 8 0 15 -7 15 -15 0
-8 7 -15 15 -15 9 0 15 -9 15 -24 0 -28 16 -43 23 -24 3 7 6 0 6 -15 1 -17 5
-26 12 -22 6 4 13 -2 16 -14 3 -12 12 -21 19 -21 8 0 14 -4 14 -8 0 -5 13 -22
30 -38 16 -16 30 -39 30 -51 0 -14 6 -23 15 -23 8 0 15 -7 15 -15 0 -8 7 -15
15 -15 8 0 15 -7 15 -15 0 -8 7 -15 15 -15 8 0 15 -7 15 -15 0 -8 7 -15 15
-15 8 0 15 -7 15 -15 0 -8 7 -15 15 -15 8 0 15 -9 15 -19 0 -22 41 -71 59 -71
7 0 10 -4 7 -9 -3 -5 1 -11 9 -15 8 -3 15 -12 15 -21 0 -8 7 -15 15 -15 8 0
15 -7 15 -15 0 -8 7 -15 15 -15 8 0 15 -7 15 -15 0 -8 7 -15 15 -15 8 0 15 -7
15 -15 0 -8 7 -15 15 -15 8 0 15 -4 15 -10 0 -13 37 -50 50 -50 5 0 10 -9 10
-20 0 -11 6 -19 12 -17 7 1 12 -5 10 -13 -2 -8 0 -12 4 -8 12 12 34 -13 34
-38 0 -17 6 -24 20 -24 14 0 18 -5 13 -17 -5 -12 -2 -15 10 -10 12 5 17 1 17
-13 0 -11 7 -20 15 -20 8 0 15 -7 15 -15 0 -8 7 -15 15 -15 8 0 15 -7 15 -16
0 -10 6 -14 15 -10 10 4 15 -1 15 -14 0 -11 7 -20 15 -20 8 0 15 -7 15 -15 0
-8 7 -15 15 -15 8 0 15 -7 15 -15 0 -8 7 -15 15 -15 8 0 15 -7 15 -15 0 -8 7
-15 15 -15 8 0 15 -7 15 -15 0 -8 7 -15 15 -15 8 0 15 -7 15 -15 0 -8 7 -15
15 -15 8 0 15 -7 15 -15 0 -8 7 -15 15 -15 8 0 15 -7 15 -15 0 -8 8 -15 18
-15 9 0 24 -5 32 -11 13 -9 12 -10 -3 -5 -9 3 -17 1 -17 -4 0 -6 9 -10 20 -10
14 0 18 -5 13 -16 -4 -12 -1 -15 15 -12 14 2 35 -12 66 -44 25 -27 49 -48 54
-48 10 0 42 -38 42 -50 0 -6 7 -10 15 -10 8 0 15 -6 15 -14 0 -7 9 -16 21 -19
12 -3 18 -10 14 -16 -3 -7 2 -11 14 -11 15 0 19 -4 14 -17 -4 -11 -3 -14 6 -9
8 5 14 1 18 -12 3 -12 17 -22 36 -27 29 -6 30 -8 12 -15 -18 -8 -18 -9 5 -9
16 -1 36 -13 50 -31 14 -16 31 -29 38 -30 6 0 12 -7 12 -15 0 -8 7 -15 15 -15
8 0 15 -7 15 -15 0 -8 9 -15 20 -15 14 0 18 -5 13 -17 -5 -12 -2 -15 10 -10
16 6 22 -4 18 -27 -1 -5 5 -6 14 -2 9 3 24 -3 35 -14 11 -11 25 -20 30 -20 6
0 10 -7 10 -16 0 -8 5 -12 11 -9 6 4 13 -2 16 -14 3 -12 12 -21 19 -21 8 0 14
-7 14 -15 0 -9 9 -15 23 -15 12 0 35 -14 51 -30 16 -17 33 -30 38 -30 4 0 8
-7 8 -16 0 -8 5 -12 11 -9 6 4 13 -2 16 -14 4 -14 13 -21 29 -21 14 0 27 -7
30 -15 4 -8 12 -15 20 -15 8 0 14 -7 14 -15 0 -8 4 -15 9 -15 6 0 25 -13 43
-30 18 -16 40 -30 50 -30 10 0 18 -6 18 -14 0 -7 9 -16 21 -19 12 -3 18 -10
15 -16 -4 -5 6 -11 21 -13 16 -2 27 -8 26 -15 -2 -7 4 -13 12 -13 18 0 61 -41
57 -54 -2 -5 4 -6 13 -2 9 3 24 -3 35 -14 11 -11 24 -20 30 -20 6 0 10 -7 10
-16 0 -10 6 -14 14 -11 17 7 40 -16 28 -27 -4 -4 -2 -7 3 -6 26 6 45 -1 45
-16 0 -8 4 -13 9 -9 6 3 15 -4 21 -15 6 -11 20 -20 31 -20 11 0 22 -6 25 -14
3 -8 15 -16 26 -19 13 -4 17 -10 12 -18 -5 -9 -2 -10 10 -6 10 4 24 -1 35 -12
11 -11 22 -17 26 -13 3 3 8 -4 12 -16 4 -15 13 -22 29 -22 14 0 27 -6 30 -14
3 -8 15 -16 26 -19 11 -3 17 -10 13 -16 -4 -7 4 -11 20 -11 14 0 28 -7 31 -15
4 -8 14 -15 24 -15 10 0 23 -7 30 -15 7 -8 19 -15 26 -15 8 0 14 -7 14 -15 0
-13 18 -20 43 -16 4 1 10 -6 13 -14 4 -8 12 -15 20 -15 8 0 14 -7 14 -15 0 -9
9 -15 25 -15 14 0 28 -7 31 -15 4 -8 12 -15 20 -15 8 0 14 -6 14 -13 0 -7 12
-14 26 -15 32 -2 46 -11 39 -23 -4 -5 4 -9 17 -9 13 0 36 -12 51 -26 16 -14
40 -30 55 -34 15 -4 26 -12 25 -19 -2 -6 10 -11 27 -11 20 0 30 -5 30 -15 0
-9 9 -15 25 -15 14 0 28 -7 31 -15 4 -8 16 -15 28 -15 12 0 36 -13 54 -30 18
-16 35 -30 37 -30 3 0 12 0 20 0 8 0 15 -6 15 -13 0 -7 12 -14 28 -15 15 -1
32 -9 38 -17 6 -8 21 -15 33 -15 12 0 21 -6 21 -15 0 -9 9 -15 24 -15 13 0 29
-7 36 -15 7 -8 16 -13 20 -10 4 3 19 -4 33 -15 14 -11 32 -20 41 -20 9 0 19
-7 22 -15 4 -8 17 -15 30 -15 14 0 27 -7 30 -15 4 -8 17 -15 30 -15 14 0 27
-6 30 -13 2 -7 14 -14 27 -14 12 -1 27 -9 33 -18 6 -8 21 -15 33 -15 12 0 24
-6 27 -13 2 -7 16 -14 31 -15 14 -1 31 -8 37 -16 6 -8 22 -16 36 -18 14 -2 24
-9 22 -16 -1 -7 3 -12 10 -11 31 4 48 -2 48 -16 0 -11 11 -15 39 -15 22 0 44
-6 51 -15 7 -8 16 -12 21 -10 4 3 16 -2 26 -12 10 -10 26 -19 36 -19 34 -3 37
-4 37 -20 0 -14 2 -15 17 -3 11 10 14 10 9 2 -4 -8 -1 -13 9 -13 9 0 23 -7 31
-15 9 -8 28 -15 43 -15 16 0 34 -7 41 -15 7 -8 25 -15 41 -15 21 0 27 -4 23
-15 -4 -8 -2 -15 4 -15 6 0 13 6 15 13 6 13 11 -18 7 -42 -1 -8 6 -21 15 -27
9 -7 18 -24 19 -38 0 -14 7 -26 14 -26 6 0 12 -6 12 -14 0 -8 7 -16 15 -20 8
-3 15 -17 15 -31 0 -18 5 -25 20 -25 13 0 18 -5 14 -15 -5 -11 1 -15 20 -15
15 0 29 -7 32 -15 4 -8 12 -15 20 -15 8 0 14 -7 14 -15 0 -8 6 -15 14 -15 8 0
16 -7 20 -15 3 -8 17 -15 31 -15 15 0 25 -6 25 -14 0 -8 12 -17 27 -21 21 -5
24 -8 12 -16 -10 -6 -5 -9 19 -9 22 0 32 -5 32 -15 0 -9 9 -15 25 -15 14 0 28
-7 31 -15 4 -8 16 -15 29 -15 12 0 28 -7 35 -15 7 -8 21 -15 32 -15 10 0 21
-7 24 -15 4 -8 17 -15 30 -15 12 0 27 -7 32 -16 5 -9 12 -15 15 -15 29 4 47
-1 47 -14 0 -10 10 -15 30 -15 22 0 30 -5 30 -17 0 -15 2 -16 10 -3 6 10 10
11 10 3 0 -8 13 -13 30 -13 18 0 33 -6 36 -15 4 -8 18 -15 33 -15 15 0 33 -6
39 -12 14 -14 17 -15 57 -17 15 0 25 -7 25 -16 0 -11 12 -15 45 -15 31 0 45
-4 45 -13 0 -9 12 -14 30 -15 41 -1 71 -12 65 -23 -4 -5 12 -9 35 -9 27 0 43
-5 46 -15 4 -10 20 -15 50 -15 32 0 44 -4 44 -15 0 -11 12 -15 45 -15 36 0 45
-3 45 -17 0 -15 2 -16 10 -3 6 10 10 11 10 3 0 -8 11 -11 30 -9 18 2 40 -4 53
-13 12 -9 38 -18 57 -20 19 -1 40 -8 45 -14 10 -12 13 -13 65 -15 20 -2 30 -7
30 -18 0 -14 2 -15 17 -3 11 10 14 10 9 2 -5 -10 3 -13 33 -13 22 0 43 -5 47
-12 4 -7 3 -8 -4 -4 -7 4 -12 2 -12 -3 0 -6 20 -11 45 -11 33 0 45 -4 45 -15
0 -8 3 -14 8 -14 4 1 24 1 45 0 28 -1 37 -5 37 -18 0 -15 2 -16 10 -3 6 10 10
11 10 3 0 -7 3 -12 8 -12 31 5 62 -3 62 -16 0 -11 11 -15 40 -15 25 0 43 -5
46 -13 3 -8 21 -14 42 -15 20 -1 41 -7 47 -14 5 -7 24 -15 40 -16 17 -2 36 -9
43 -15 8 -6 24 -12 35 -14 45 -6 68 -14 63 -22 -3 -4 14 -8 37 -9 24 -1 47 -8
53 -17 7 -9 27 -15 53 -15 30 0 41 -4 41 -15 0 -18 36 -20 43 -2 4 9 6 9 6 0
1 -8 16 -13 40 -13 22 0 46 -6 53 -14 8 -7 33 -14 57 -14 57 -1 102 -12 96
-22 -3 -5 35 -9 84 -9 99 0 161 -8 161 -22 0 -5 21 -9 48 -8 35 0 42 3 27 9
-16 7 -17 9 -3 9 9 1 19 -3 22 -8 3 -5 42 -9 86 -8 44 0 74 4 68 9 -9 5 -8 8
5 8 9 0 17 -4 17 -10 0 -5 8 -10 18 -10 13 0 14 2 3 9 -15 10 74 21 182 22 38
1 63 5 57 9 -14 9 51 22 106 22 19 0 32 4 29 8 -6 9 82 23 140 22 28 0 34 2
20 7 -16 7 -14 9 14 14 19 4 56 7 83 7 27 0 47 4 44 9 -9 14 20 21 85 21 46 0
59 3 59 15 0 15 37 20 98 15 14 -1 22 4 22 14 0 14 38 23 73 17 4 -1 15 5 23
14 9 9 34 15 61 15 29 0 50 5 57 15 7 10 31 16 63 18 34 1 53 6 53 15 0 7 15
12 41 12 23 0 47 7 55 15 10 9 35 15 67 15 34 0 47 3 38 9 -17 11 6 19 61 23
21 1 40 8 42 15 4 8 25 13 61 13 42 0 55 3 55 15 0 11 12 15 46 15 25 0 43 4
40 9 -8 12 18 21 56 21 17 0 36 6 42 14 6 8 27 16 46 18 19 1 41 8 48 15 7 7
28 13 46 13 17 0 38 6 45 12 11 10 13 10 7 1 -4 -7 -2 -13 3 -13 6 0 11 7 11
15 0 11 12 15 45 15 25 0 45 4 45 9 0 14 41 21 143 22 54 1 97 5 97 9 0 13 45
20 122 21 45 1 80 6 92 15 13 9 49 14 101 15 58 0 75 3 60 10 -16 7 -14 8 12
5 17 -3 33 -1 35 5 2 6 33 11 72 10 47 0 73 4 83 14 10 10 38 15 86 16 49 1
64 3 47 8 -20 7 -14 9 35 16 33 5 68 8 78 6 9 -1 17 3 17 8 0 6 5 11 11 11 5
0 7 -5 4 -10 -3 -6 -1 -10 4 -10 6 0 11 5 11 11 0 5 5 7 10 4 6 -3 10 -1 10 4
0 7 27 11 68 12 44 0 60 3 47 8 -16 7 -9 10 30 15 28 4 58 11 67 17 23 12 37
12 18 -1 -11 -7 -12 -10 -2 -10 7 0 20 7 28 15 10 9 35 15 67 15 32 0 47 4 39
9 -16 10 30 21 85 21 19 0 41 7 49 15 9 9 34 15 61 15 29 0 50 5 57 15 7 10
31 16 63 18 34 1 53 6 53 15 0 10 41 16 77 11 3 0 10 6 15 15 6 11 23 16 53
16 29 0 45 4 45 13 0 8 4 7 10 -3 8 -13 10 -12 10 3 0 13 8 17 35 17 19 0 38
0 42 -1 3 0 10 6 15 15 5 9 22 16 40 16 17 0 39 7 49 15 9 9 32 17 50 18 19 1
39 7 44 14 6 6 26 13 45 15 19 1 40 8 45 15 6 7 27 13 47 15 21 1 40 8 42 15
3 8 22 13 45 13 25 0 41 5 45 15 3 10 19 15 46 15 29 0 40 4 40 15 0 10 10 15
32 15 17 0 40 7 49 16 10 9 29 16 43 16 14 0 27 7 30 14 3 8 20 14 41 14 22 0
38 6 41 15 4 8 15 15 27 15 11 0 29 8 40 17 13 11 17 13 12 4 -7 -11 -4 -11
14 1 12 9 31 14 42 11 13 -4 19 0 19 11 0 9 8 16 20 16 30 0 34 2 46 18 7 10
26 15 50 15 21 -1 33 1 26 4 -22 9 -2 23 34 23 24 0 34 5 34 15 0 13 18 18 46
14 4 0 10 5 14 12 12 19 78 39 84 25 2 -6 5 -3 5 7 1 15 24 23 53 18 5 0 7 5
5 12 -1 7 11 13 31 15 20 2 32 9 32 18 0 12 18 17 47 13 3 0 10 6 15 15 5 9
20 16 32 16 13 0 26 7 30 15 3 8 16 15 30 15 13 0 26 7 30 15 3 8 14 15 24 15
11 0 25 7 32 15 7 8 28 15 47 15 21 0 36 6 39 15 4 8 17 15 30 15 14 0 27 7
30 15 4 8 12 15 19 15 7 0 15 7 19 15 3 8 13 15 22 15 9 0 27 9 41 19 13 11
30 18 37 15 8 -3 16 2 19 10 4 9 14 16 23 16 10 0 25 7 35 16 9 8 26 16 38 17
11 1 21 7 21 14 0 8 12 13 30 13 20 0 30 5 30 15 0 10 10 15 30 15 20 0 30 5
30 15 0 10 10 15 30 15 20 0 30 5 30 15 0 8 7 15 15 15 8 0 15 7 15 15 0 10
10 15 30 15 20 0 30 5 30 15 0 15 7 18 43 18 9 0 17 6 17 13 0 8 7 14 16 14 9
0 33 14 54 30 21 17 48 30 60 30 11 0 19 4 15 9 -8 14 24 29 48 23 14 -4 18
-2 13 7 -5 8 0 14 13 18 12 3 21 12 21 19 0 9 11 14 30 14 20 0 30 5 30 15 0
8 6 15 14 15 8 0 16 7 20 15 3 8 15 15 26 15 11 0 23 7 26 15 4 8 14 15 24 15
9 0 25 9 35 20 10 11 22 17 26 14 5 -3 9 2 9 10 0 9 6 16 14 16 8 0 17 6 19
13 4 9 6 9 6 0 1 -18 21 -16 21 2 0 8 7 15 15 15 8 0 15 7 15 15 0 8 6 15 14
15 8 0 17 6 19 13 4 9 6 9 6 0 1 -18 21 -16 21 2 0 8 7 15 15 15 8 0 15 7 15
15 0 14 16 19 50 16 13 -2 13 -1 0 9 -13 8 -12 11 7 16 12 3 24 12 27 20 3 8
11 14 18 14 7 0 19 9 25 19 8 13 19 18 34 14 14 -4 20 -2 15 5 -9 14 54 58 78
53 14 -2 17 2 13 13 -5 11 -1 16 13 16 11 0 20 7 20 15 0 8 7 15 15 15 8 0 15
5 15 11 0 5 14 15 30 20 17 6 30 15 30 20 0 5 7 9 15 9 8 0 15 7 15 15 0 8 8
15 19 15 10 0 24 7 31 15 7 8 19 15 26 15 8 0 14 7 14 15 0 8 7 15 15 15 8 0
15 7 15 15 0 9 9 15 25 15 14 0 28 7 31 15 4 8 14 15 23 16 11 0 12 2 3 6 -14
6 34 53 54 53 7 0 14 7 18 15 3 8 17 15 32 15 19 0 25 4 20 15 -4 11 1 15 17
15 17 0 19 2 8 9 -12 8 -9 11 12 16 15 4 27 13 27 21 0 8 6 14 13 14 6 1 23
14 37 30 13 17 32 30 42 30 10 0 21 7 24 15 4 8 12 15 20 15 8 0 14 7 14 15 0
8 7 15 15 15 8 0 15 7 15 15 0 8 7 15 15 15 8 0 15 7 15 15 0 8 6 15 14 15 8
0 16 7 20 15 3 8 17 15 32 15 19 0 25 4 20 15 -3 8 0 15 7 15 14 0 53 41 49
52 -1 5 7 8 18 8 11 0 20 4 20 10 0 9 66 80 75 80 3 0 22 18 44 40 21 22 41
37 45 33 3 -3 6 -1 6 5 0 7 9 12 20 12 13 0 20 7 20 19 0 11 5 23 12 27 7 4 8
3 4 -4 -4 -7 -2 -12 3 -12 6 0 11 6 11 14 0 8 7 16 15 20 8 3 15 12 15 20 0 8
5 18 12 22 7 4 8 3 4 -4 -4 -7 -2 -12 3 -12 6 0 11 4 11 10 0 12 68 80 80 80
6 0 10 9 10 21 0 15 5 19 15 15 8 -3 14 -2 14 2 -4 23 3 34 17 28 9 -3 12 -2
9 5 -4 6 3 13 15 16 13 3 19 11 16 19 -3 9 2 14 14 14 14 0 20 7 20 21 0 15 5
19 15 15 8 -3 14 -2 14 2 -4 23 3 34 17 28 9 -3 12 -2 9 5 -4 6 2 13 14 16 12
3 21 12 21 19 0 8 7 14 15 14 8 0 15 6 15 14 0 8 7 16 15 20 8 3 15 12 15 20
0 8 5 18 12 22 7 5 9 2 4 -7 -4 -8 -1 -6 7 4 8 9 19 17 26 17 6 0 11 5 11 10
0 13 37 50 50 50 5 0 10 4 10 10 0 5 -8 6 -17 3 -10 -4 11 21 45 56 34 34 62
66 62 71 0 6 7 10 15 10 8 0 15 7 15 15 0 8 7 15 16 15 8 0 12 5 9 11 -4 6 2
13 14 16 12 3 21 13 21 24 0 12 5 16 15 13 9 -4 15 0 15 10 0 9 7 16 15 16 8
0 15 9 15 20 0 18 39 70 40 53 1 -5 8 4 16 20 8 15 19 27 24 27 6 0 10 7 10
15 0 8 7 15 15 15 8 0 15 7 15 15 0 8 7 15 15 15 8 0 14 3 13 7 -4 11 35 73
45 73 4 0 5 -4 2 -10 -3 -5 -1 -10 5 -10 6 0 10 6 9 12 -4 31 2 48 16 48 8 0
15 7 15 15 0 8 7 15 15 15 8 0 15 6 15 14 0 8 7 17 16 20 8 3 12 10 9 16 -3 5
3 10 14 10 16 0 21 6 21 25 0 14 7 28 15 31 8 4 15 12 15 20 0 8 7 14 15 14 8
0 15 6 15 14 0 8 7 16 15 20 8 3 15 12 15 20 0 8 5 18 12 22 7 4 8 3 4 -4 -4
-7 -2 -12 3 -12 6 0 11 11 11 24 0 13 13 38 29 55 17 18 31 35 33 39 1 4 8 6
15 4 8 -2 13 7 13 23 0 14 7 28 15 31 8 4 15 12 15 20 0 8 7 14 16 14 10 0 14
6 11 14 -3 8 2 20 11 28 11 9 14 10 8 1 -4 -7 -2 -13 3 -13 6 0 11 14 11 30 0
21 5 30 16 30 8 0 12 5 9 11 -4 6 2 13 14 16 12 3 21 11 21 18 0 7 7 15 15 19
8 3 15 17 15 31 0 16 6 25 16 25 8 0 13 4 10 9 -7 11 18 33 27 24 4 -3 7 8 7
25 0 22 5 32 15 32 8 0 15 7 15 15 0 8 7 15 16 15 11 0 15 6 11 20 -3 11 2 25
12 32 15 12 15 11 1 -6 -13 -17 -13 -19 0 -14 8 2 16 17 18 31 2 15 10 27 18
27 8 0 14 7 14 15 0 8 7 15 15 15 10 0 15 10 15 30 0 20 5 30 15 30 9 0 15 9
15 25 0 14 5 25 10 25 6 0 14 8 17 17 4 10 13 23 20 28 8 6 16 19 17 30 2 11
9 19 15 18 6 -2 11 6 11 17 0 11 7 20 15 20 9 0 15 9 15 25 0 14 7 28 15 31 8
4 15 12 15 20 0 8 6 14 14 14 9 0 16 12 18 33 2 19 8 31 16 30 6 -2 12 4 12
12 0 8 6 15 13 15 8 0 7 3 -3 10 -12 8 -12 10 3 16 9 3 17 12 17 20 0 8 7 14
15 14 10 0 15 10 15 30 0 20 5 30 15 30 9 0 15 9 15 23 1 24 32 67 49 67 6 0
11 14 11 30 0 20 5 30 15 30 9 0 15 9 15 23 0 12 14 37 30 55 17 18 30 44 30
57 0 18 4 23 15 19 11 -5 15 1 15 25 0 20 5 31 14 31 9 0 16 12 18 33 2 19 8
31 16 30 7 -2 12 7 12 22 0 14 7 28 15 31 8 4 15 17 15 30 0 14 7 27 15 30 8
4 15 17 15 30 0 14 7 27 15 30 8 4 15 13 15 20 0 8 7 17 15 20 8 4 15 17 15
30 0 15 6 24 15 24 10 0 15 10 15 30 0 20 5 30 15 30 10 0 15 10 15 30 0 18 6
33 15 36 8 4 15 17 15 30 0 14 7 27 15 30 9 4 15 19 15 40 0 22 6 37 15 40 9
4 15 19 15 35 0 19 5 29 15 29 9 0 15 9 15 23 0 12 7 31 15 41 8 11 15 28 15
38 0 10 7 18 15 18 10 0 15 10 15 29 0 16 6 31 15 35 8 3 15 17 15 31 0 14 6
28 13 31 8 3 14 19 15 37 0 17 7 36 14 42 7 5 14 18 15 28 1 33 3 37 16 37 8
0 14 15 15 37 2 21 9 45 17 54 8 8 15 25 15 37 0 14 6 22 16 22 10 0 14 6 10
15 -8 21 3 45 20 45 10 0 14 13 14 45 0 34 4 45 16 45 9 0 14 7 13 18 -4 25
10 72 21 72 6 0 10 14 10 30 0 19 5 30 14 30 9 0 14 12 14 37 0 20 6 42 14 47
7 6 15 27 16 46 2 19 10 40 18 46 8 6 14 23 14 38 0 15 7 29 15 32 10 4 15 20
15 45 0 27 4 39 14 39 10 0 14 13 14 46 0 26 6 51 13 58 9 8 10 8 5 -1 -4 -7
-2 -13 4 -13 6 0 11 10 10 23 -4 48 0 67 16 67 10 0 15 8 14 23 -4 45 0 76 13
89 7 7 14 29 15 48 2 19 9 40 15 45 12 10 13 13 16 65 0 19 6 30 16 30 11 0
15 12 15 50 0 29 5 50 11 50 5 0 7 5 4 10 -3 6 -1 10 4 10 6 0 11 20 11 45 0
32 4 45 14 45 10 0 14 14 14 52 1 36 6 56 16 64 11 8 16 28 16 62 0 32 5 54
14 59 8 5 15 34 19 76 2 38 10 74 16 80 6 6 11 28 11 49 0 27 4 38 15 38 11 0
14 14 13 67 -1 52 3 69 16 79 12 8 17 23 15 46 -1 18 1 58 6 88 6 42 10 50 16
35 5 -13 8 3 8 47 1 69 8 101 20 93 4 -2 8 23 9 56 1 71 10 119 23 119 5 0 8
28 8 63 -1 77 10 144 22 126 4 -7 8 22 8 68 0 87 8 133 22 133 5 0 9 8 9 18 0
14 -2 15 -10 2 -6 -9 -10 -10 -10 -3 0 6 4 14 9 17 5 3 9 40 10 82 1 82 8 124
21 124 5 0 10 66 12 147 2 103 7 148 15 150 9 3 12 48 12 161 1 178 10 304 22
296 4 -2 8 238 8 536 0 318 -4 542 -9 545 -6 4 -4 14 3 26 9 14 9 22 1 27 -17
11 -24 92 -25 282 0 96 -4 169 -8 161 -11 -17 -21 50 -22 154 -1 47 -6 83 -13
87 -8 6 -7 8 2 8 17 0 15 41 -3 64 -11 15 -15 48 -15 127 0 86 -3 108 -15 113
-12 4 -15 25 -15 102 0 76 -3 99 -15 108 -12 8 -16 32 -17 93 -1 58 -6 84 -15
87 -9 4 -13 29 -13 85 0 59 -4 82 -14 88 -10 6 -16 30 -18 80 -2 39 -6 69 -10
67 -11 -7 -21 44 -21 103 0 38 -4 53 -13 53 -13 0 -20 54 -15 98 1 7 -5 19
-14 28 -8 8 -15 31 -15 50 0 19 -7 48 -15 64 -9 17 -16 57 -16 90 -1 44 -5 60
-15 60 -13 0 -19 39 -14 98 1 14 -4 22 -14 22 -12 0 -16 11 -16 44 0 24 -5 46
-11 48 -6 2 -14 28 -17 58 -2 31 -11 58 -18 63 -8 5 -14 25 -14 46 0 22 -6 44
-15 51 -10 8 -15 30 -15 61 0 37 -4 49 -15 49 -11 0 -15 11 -15 41 0 24 -6 46
-14 53 -8 6 -16 27 -18 46 -1 19 -8 41 -15 48 -12 12 -18 48 -14 81 2 7 -2 10
-8 7 -11 -7 -22 22 -23 64 -1 16 -4 27 -8 25 -10 -6 -20 20 -20 52 0 14 -6 31
-14 37 -8 6 -16 27 -18 46 -1 19 -9 40 -17 46 -8 6 -14 28 -14 48 0 23 -5 36
-14 36 -8 0 -13 11 -13 29 0 16 -7 34 -15 41 -8 7 -15 25 -15 41 0 16 -9 38
-20 49 -14 14 -18 27 -14 50 5 23 3 30 -10 30 -9 0 -16 8 -16 19 0 11 -9 36
-21 55 -13 22 -18 43 -14 56 5 14 2 20 -9 20 -10 0 -16 9 -16 24 0 13 -7 29
-15 36 -9 7 -15 29 -15 52 0 21 -4 37 -9 34 -13 -8 -27 15 -25 41 0 12 -5 24
-12 27 -8 3 -14 15 -14 26 0 12 -7 28 -15 36 -8 9 -15 29 -15 45 0 17 -6 32
-15 35 -9 4 -15 19 -15 35 0 19 -5 29 -15 29 -8 0 -15 5 -15 10 0 6 0 12 0 15
0 3 -9 21 -20 42 -10 20 -17 40 -15 44 3 4 -2 9 -10 13 -8 3 -15 16 -15 30 0
13 -7 26 -15 30 -9 3 -15 19 -15 41 0 22 -6 38 -15 41 -9 4 -15 19 -15 35 0
19 -5 29 -15 29 -10 0 -15 10 -15 30 0 20 -5 30 -15 30 -10 0 -15 10 -15 30 0
20 -5 30 -15 30 -10 0 -15 10 -15 30 0 20 -5 30 -15 30 -9 0 -15 9 -15 25 0
14 -7 28 -15 31 -8 4 -15 12 -15 19 0 7 -7 15 -15 19 -8 3 -15 17 -15 31 0 16
-6 25 -15 25 -9 0 -15 9 -15 24 0 13 -7 29 -15 36 -8 7 -15 23 -15 36 0 15 -6
24 -15 24 -14 0 -19 14 -18 48 1 6 -4 12 -11 12 -6 0 -16 11 -23 25 -6 14 -7
23 -2 19 5 -3 9 0 9 5 0 6 -5 11 -11 11 -17 0 -48 43 -49 68 0 13 -6 22 -15
22 -10 0 -15 10 -15 30 0 20 -5 30 -15 30 -8 0 -15 6 -15 14 0 7 -7 19 -15 26
-8 7 -15 20 -15 30 0 10 -7 20 -15 24 -8 3 -15 14 -15 23 0 10 -9 26 -20 36
-12 10 -18 22 -15 27 3 6 0 10 -7 10 -9 0 -9 3 2 10 13 8 12 10 -2 10 -10 0
-18 6 -18 14 0 8 -7 16 -15 20 -8 3 -15 17 -15 31 0 16 -6 25 -15 25 -9 0 -15
9 -15 25 0 14 -7 28 -15 31 -8 4 -15 12 -15 20 0 8 -7 14 -15 14 -8 0 -15 5
-15 11 0 6 -9 22 -20 36 -11 14 -17 29 -14 34 3 5 -2 9 -10 9 -11 0 -16 9 -16
30 0 17 -4 30 -10 30 -17 0 -50 39 -50 60 0 10 -9 24 -20 30 -11 6 -18 15 -15
21 4 5 -1 9 -9 9 -9 0 -16 8 -16 19 0 10 -7 21 -15 25 -8 3 -15 15 -15 26 0
11 -7 20 -15 20 -9 0 -15 9 -15 24 0 16 -7 27 -19 31 -12 4 -18 12 -14 21 3 8
-1 14 -11 14 -9 0 -16 7 -16 15 0 8 -7 15 -15 15 -10 0 -15 10 -15 31 0 16 -4
28 -9 25 -11 -7 -33 18 -24 27 3 4 -1 7 -10 7 -11 0 -17 8 -17 24 0 13 -7 26
-15 30 -8 3 -15 12 -15 21 0 8 -7 15 -15 15 -8 0 -15 6 -15 14 0 8 -7 16 -15
20 -8 3 -15 17 -15 31 0 16 -6 25 -15 25 -8 0 -15 7 -15 15 0 8 -7 15 -15 15
-8 0 -15 7 -15 15 0 8 -7 15 -15 15 -8 0 -15 6 -15 14 0 8 -8 17 -17 20 -15 6
-15 8 -3 16 12 8 12 10 -3 10 -12 0 -23 12 -30 30 -6 17 -15 30 -20 30 -16 0
-46 44 -47 68 0 12 -5 22 -11 22 -5 0 -7 -5 -3 -12 4 -7 3 -8 -4 -4 -7 4 -12
16 -12 27 0 10 -7 19 -15 19 -8 0 -15 7 -15 15 0 8 -7 15 -15 15 -8 0 -15 4
-15 8 0 5 -13 22 -30 38 -16 16 -30 40 -30 53 0 16 -4 21 -15 17 -13 -5 -20 5
-16 27 0 4 -6 7 -14 7 -8 0 -15 7 -15 15 0 8 -7 15 -15 15 -8 0 -15 4 -15 10
0 5 -20 30 -45 54 -35 36 -41 46 -27 49 16 4 16 5 0 6 -10 0 -18 8 -18 16 0 8
-7 15 -15 15 -8 0 -15 7 -15 15 0 8 -7 15 -15 15 -8 0 -15 7 -15 15 0 8 -7 15
-15 15 -8 0 -15 7 -15 15 0 8 -7 15 -15 15 -8 0 -15 7 -15 15 0 8 -7 15 -15
15 -8 0 -15 5 -15 10 0 6 -20 30 -45 53 -25 24 -45 53 -45 64 0 13 -8 23 -21
26 -14 4 -18 10 -13 18 5 9 2 10 -9 6 -13 -5 -17 -1 -17 14 0 15 -5 19 -15 15
-9 -3 -15 0 -15 9 0 7 -5 17 -12 21 -7 5 -8 3 -3 -6 5 -9 4 -11 -3 -6 -7 4
-12 14 -12 22 0 8 -7 17 -15 20 -8 4 -15 12 -15 20 0 8 -7 14 -15 14 -8 0 -15
7 -15 16 0 8 -4 13 -9 10 -11 -7 -33 19 -24 28 4 4 0 4 -10 0 -13 -4 -17 -1
-17 15 0 12 -6 21 -15 21 -8 0 -15 7 -15 15 0 8 -7 15 -15 15 -8 0 -15 7 -15
15 0 8 -7 15 -15 15 -8 0 -15 7 -15 15 0 8 -7 15 -15 15 -8 0 -15 6 -15 14 0
7 -9 16 -21 19 -12 3 -18 10 -14 16 3 7 0 8 -9 5 -11 -4 -16 0 -16 15 0 12 -5
21 -11 21 -5 0 -24 15 -41 33 -17 17 -27 26 -23 18 5 -9 4 -12 -3 -7 -7 4 -12
16 -12 27 0 10 -7 19 -15 19 -8 0 -15 7 -15 15 0 8 -7 15 -15 15 -8 0 -15 7
-15 15 0 8 -5 15 -11 15 -5 0 -7 -4 -4 -10 3 -5 2 -10 -3 -10 -6 0 -13 11 -16
25 -4 15 -14 25 -24 25 -10 0 -29 13 -42 30 -14 16 -31 29 -37 30 -7 0 -13 7
-13 15 0 8 -7 15 -15 15 -8 0 -15 7 -15 15 0 8 -7 15 -15 15 -8 0 -15 6 -15
14 0 7 -9 16 -21 19 -13 4 -18 10 -13 18 5 8 3 10 -5 5 -8 -5 -14 0 -18 13 -3
12 -13 21 -25 21 -14 0 -18 5 -14 15 3 8 1 15 -4 15 -6 0 -10 -6 -10 -12 -1
-7 -7 -2 -15 12 -8 14 -14 21 -15 16 0 -5 -11 3 -25 18 -13 14 -29 26 -35 26
-5 0 -10 7 -10 15 0 8 -7 15 -15 15 -8 0 -15 6 -15 14 0 7 -9 16 -21 19 -14 4
-18 10 -13 18 5 9 2 10 -9 6 -12 -5 -17 -1 -17 13 0 16 -7 20 -30 20 -20 0
-30 5 -30 15 0 8 -7 15 -15 15 -8 0 -15 7 -15 15 0 8 -6 15 -14 15 -8 0 -17 7
-20 16 -3 8 -10 12 -16 9 -5 -3 -10 3 -10 14 0 16 -6 21 -25 21 -14 0 -28 7
-31 15 -4 8 -12 15 -20 15 -8 0 -14 7 -14 15 0 8 -7 15 -15 15 -8 0 -15 7 -15
16 0 10 -6 14 -15 10 -8 -3 -15 -2 -15 2 0 4 -18 18 -41 32 -22 14 -45 33 -50
43 -6 10 -14 15 -18 12 -5 -2 -15 3 -22 12 -12 14 -12 16 0 8 10 -5 12 -4 7 3
-4 7 -16 12 -27 12 -11 0 -22 7 -25 15 -4 8 -12 15 -20 15 -8 0 -14 7 -14 16
0 10 -6 14 -15 10 -10 -4 -15 1 -15 15 0 17 -5 20 -20 16 -14 -4 -25 1 -33 14
-6 10 -17 19 -24 19 -7 0 -13 7 -13 17 0 9 -3 13 -6 10 -9 -9 -46 12 -39 23 3
5 -4 7 -16 5 -14 -3 -23 2 -26 14 -3 11 -14 22 -25 24 -11 3 -17 10 -13 16 4
7 -3 11 -17 11 -25 1 -68 32 -68 49 0 6 -7 12 -15 12 -35 3 -40 5 -37 17 1 7
-7 12 -17 12 -10 0 -21 7 -25 15 -3 8 -14 15 -25 15 -10 0 -21 7 -25 15 -3 8
-12 15 -21 15 -8 0 -15 7 -15 15 0 9 -9 15 -25 15 -14 0 -28 7 -31 15 -4 8
-12 15 -20 15 -8 0 -14 6 -14 13 0 7 -10 14 -22 14 -13 1 -28 9 -34 18 -6 8
-14 15 -18 15 -4 0 -14 7 -23 15 -8 8 -19 13 -23 10 -5 -3 -15 3 -22 15 -7 11
-18 20 -25 20 -7 0 -13 7 -13 16 0 9 -6 14 -12 11 -19 -7 -60 11 -53 23 4 6 3
10 -2 9 -4 -1 -11 0 -15 1 -5 1 -14 3 -20 4 -7 1 -11 8 -10 16 2 8 0 12 -3 8
-11 -11 -47 11 -39 24 5 7 1 9 -9 5 -22 -8 -47 2 -47 19 0 8 -7 15 -15 15 -35
3 -40 5 -38 17 2 7 -6 12 -17 12 -11 0 -20 7 -20 15 0 10 -10 15 -30 15 -20 0
-30 5 -30 15 0 9 -9 15 -25 15 -14 0 -28 7 -31 15 -4 8 -17 15 -30 15 -14 0
-27 7 -30 15 -4 8 -12 15 -20 15 -8 0 -14 7 -14 15 0 10 -10 15 -30 15 -20 0
-30 5 -30 15 0 10 -10 15 -30 15 -20 0 -30 5 -30 15 0 9 -9 15 -24 15 -13 0
-29 7 -36 15 -7 8 -21 15 -32 15 -10 0 -21 7 -24 15 -4 8 -17 15 -30 15 -14 0
-27 7 -30 15 -4 8 -16 15 -28 15 -13 0 -36 13 -52 30 -16 16 -39 30 -50 30
-12 0 -24 7 -28 15 -3 8 -18 15 -34 15 -26 0 -99 31 -111 47 -3 5 -17 14 -30
21 -19 11 -22 11 -16 0 3 -7 0 -5 -8 5 -8 9 -24 17 -36 17 -12 0 -24 7 -27 15
-4 9 -19 15 -35 15 -19 0 -29 5 -29 15 0 8 -3 14 -7 14 -27 -4 -53 3 -53 15 0
8 -10 14 -24 14 -13 0 -39 7 -56 16 -18 9 -39 16 -45 16 -7 0 -18 7 -25 15 -7
9 -19 14 -26 11 -8 -3 -19 3 -26 12 -7 9 -24 19 -38 20 -14 2 -29 10 -33 18
-4 8 -23 14 -43 14 -22 0 -37 6 -40 15 -4 9 -19 15 -35 15 -18 0 -29 5 -29 14
0 10 -11 14 -35 13 -19 -1 -42 6 -53 16 -10 9 -28 17 -40 17 -13 0 -22 6 -22
16 0 11 -8 15 -27 13 -35 -3 -75 10 -68 22 4 5 -10 9 -29 9 -19 0 -38 5 -42
12 -4 7 -3 8 4 4 7 -4 12 -2 12 4 0 6 -8 9 -17 6 -23 -7 -79 8 -76 21 1 5 -15
10 -35 11 -21 1 -42 8 -49 17 -6 9 -14 16 -17 16 -31 -4 -57 2 -70 14 -8 8
-25 15 -38 15 -36 0 -68 11 -62 21 3 5 -11 9 -30 9 -19 0 -41 6 -48 13 -7 7
-26 14 -42 15 -16 1 -37 8 -45 15 -9 8 -32 14 -51 15 -19 2 -39 8 -45 15 -5 6
-26 13 -45 15 -19 2 -40 10 -46 18 -7 8 -16 14 -20 13 -33 -6 -74 3 -74 15 0
11 -13 15 -51 14 -38 -1 -55 3 -64 15 -8 11 -27 17 -56 17 -24 1 -55 7 -69 15
-14 8 -40 14 -57 15 -23 0 -33 5 -33 16 0 10 -8 15 -22 14 -63 -5 -98 0 -98
16 0 11 -9 15 -32 14 -67 -4 -88 0 -88 15 0 12 -14 15 -64 15 -44 0 -69 5 -80
15 -8 8 -21 15 -28 15 -10 0 -9 -3 2 -10 9 -6 10 -10 3 -10 -6 0 -15 5 -18 10
-3 6 -24 10 -46 10 -25 0 -39 5 -39 13 0 9 -21 13 -67 15 -43 2 -72 8 -79 17
-5 7 -28 13 -50 13 -90 0 -104 2 -104 17 0 12 -13 15 -62 14 -71 -1 -145 10
-129 20 5 4 -26 7 -71 8 -58 1 -85 5 -92 15 -8 10 -37 15 -106 16 -70 2 -98 6
-106 17 -9 12 -36 15 -122 15 -61 0 -113 4 -117 10 -3 5 -12 7 -20 3 -8 -3
-15 -1 -15 4 0 6 -47 11 -107 11 -124 2 -195 11 -188 22 3 5 -72 9 -167 9
-181 1 -288 8 -288 21 0 4 -225 7 -499 7 -275 -1 -497 -5 -495 -9 3 -4 -2 -8
-11 -8 -9 0 -14 4 -10 9 3 6 -4 9 -15 8 -11 -1 -20 -4 -20 -8z m-9330 -5463
c0 -3 -4 -8 -10 -11 -5 -3 -10 -1 -10 4 0 6 5 11 10 11 6 0 10 -2 10 -4z"/>
<path d="M9338 23513 c7 -3 16 -2 19 1 4 3 -2 6 -13 5 -11 0 -14 -3 -6 -6z"/>
<path d="M15825 23180 c3 -5 8 -10 11 -10 2 0 4 5 4 10 0 6 -5 10 -11 10 -5 0
-7 -4 -4 -10z"/>
<path d="M16455 22940 c3 -5 8 -10 11 -10 2 0 4 5 4 10 0 6 -5 10 -11 10 -5 0
-7 -4 -4 -10z"/>
<path d="M5430 21799 c0 -5 5 -7 10 -4 6 3 10 8 10 11 0 2 -4 4 -10 4 -5 0
-10 -5 -10 -11z"/>
<path d="M19245 21290 c3 -5 8 -10 11 -10 2 0 4 5 4 10 0 6 -5 10 -11 10 -5 0
-7 -4 -4 -10z"/>
<path d="M20805 19790 c3 -5 8 -10 11 -10 2 0 4 5 4 10 0 6 -5 10 -11 10 -5 0
-7 -4 -4 -10z"/>
<path d="M3120 19699 c0 -5 5 -7 10 -4 6 3 10 8 10 11 0 2 -4 4 -10 4 -5 0
-10 -5 -10 -11z"/>
<path d="M2820 19339 c0 -5 5 -7 10 -4 6 3 10 8 10 11 0 2 -4 4 -10 4 -5 0
-10 -5 -10 -11z"/>
<path d="M22005 18110 c3 -5 8 -10 11 -10 2 0 4 5 4 10 0 6 -5 10 -11 10 -5 0
-7 -4 -4 -10z"/>
<path d="M1380 16939 c0 -5 5 -7 10 -4 6 3 10 8 10 11 0 2 -4 4 -10 4 -5 0
-10 -5 -10 -11z"/>
<path d="M1110 16279 c0 -5 5 -7 10 -4 6 3 10 8 10 11 0 2 -4 4 -10 4 -5 0
-10 -5 -10 -11z"/>
<path d="M22875 16280 c3 -5 8 -10 11 -10 2 0 4 5 4 10 0 6 -5 10 -11 10 -5 0
-7 -4 -4 -10z"/>
<path d="M781 15224 c0 -11 3 -14 6 -6 3 7 2 16 -1 19 -3 4 -6 -2 -5 -13z"/>
<path d="M23301 9524 c0 -11 3 -14 6 -6 3 7 2 16 -1 19 -3 4 -6 -2 -5 -13z"/>
<path d="M2340 5740 c0 -5 5 -10 11 -10 5 0 7 5 4 10 -3 6 -8 10 -11 10 -2 0
-4 -4 -4 -10z"/>
<path d="M5760 2410 c0 -5 5 -10 11 -10 5 0 7 5 4 10 -3 6 -8 10 -11 10 -2 0
-4 -4 -4 -10z"/>
<path d="M9900 340 c0 -5 5 -10 11 -10 5 0 7 5 4 10 -3 6 -8 10 -11 10 -2 0
-4 -4 -4 -10z"/>
</g>
</svg>
